<?xml version="1.0" encoding="utf-8"?>
<!-- Generator: Adobe Illustrator 24.1.2, SVG Export Plug-In . SVG Version: 6.00 Build 0)  -->
<svg version="1.1" id="Слой_1" xmlns="http://www.w3.org/2000/svg" xmlns:xlink="http://www.w3.org/1999/xlink" x="0px" y="0px"
	 viewBox="0 0 512 512" style="enable-background:new 0 0 512 512;" height="16" width="16" xml:space="preserve">
<style type="text/css">
	.st0{fill:#ffffff;}
</style>
<g id="Page-1">
	<g id="_x30_19---Voicemail" transform="translate(-1)">
		<path id="Shape" class="st0" d="M300.4,300c-48.9,48.9-97.7,59.9-117.3,62.4c-5.4,0.7-10.8-1.2-14.7-5l-39.5-39.5
			c-5.8-5.8-14.9-6.8-21.8-2.5l-97.8,63c-7.7,4.8-10.5,14.7-6.4,22.9l47.5,100.9c3.2,6.6,10.2,10.5,17.5,9.7
			c50.3-5.3,174-27.2,295.6-148.8S507,117.9,512.3,67.5c0.7-7.3-3.1-14.3-9.7-17.5L401.5,2.4c-8.1-4.1-18-1.3-22.8,6.4l-62.9,97.8
			c-4.4,7-3.3,16,2.5,21.8l39.4,39.6c3.9,3.8,5.7,9.3,5,14.7C360.3,202.2,349.3,251.1,300.4,300L300.4,300z"/>
	</g>
</g>
</svg>
