<?xml version="1.0" encoding="utf-8"?>
<!-- Generator: Adobe Illustrator 24.1.2, SVG Export Plug-In . SVG Version: 6.00 Build 0)  -->
<svg version="1.1" id="Слой_1" xmlns="http://www.w3.org/2000/svg" xmlns:xlink="http://www.w3.org/1999/xlink" x="0px" y="0px"
	 viewBox="0 0 682 682" style="enable-background:new 0 0 682 682;" height="16" width="16" xml:space="preserve">
<style type="text/css">
	.st0{fill-rule:evenodd;clip-rule:evenodd;fill:#128C7E;}
</style>
<path class="st0" d="M582.5,99.1C518.7,35.2,433.9,0,343.5,0C157.2,0,5.6,151.6,5.5,337.9c0,59.6,15.5,117.7,45.1,169L2.7,682
	l179.2-47c49.4,26.9,104.9,41.1,161.5,41.1h0.1c186.3,0,337.9-151.6,337.9-337.9C681.5,247.9,646.3,163,582.5,99.1z M343.5,619.1
	h-0.1c-50.4,0-99.8-13.6-143-39.2l-10.3-6.1L83.8,601.7l28.4-103.7l-6.7-10.6c-28.1-44.7-43-96.4-42.9-149.5
	c0.1-154.9,126.1-280.9,281-280.9c75,0,145.6,29.3,198.6,82.4s82.2,123.7,82.2,198.7C624.3,493.1,498.3,619.1,343.5,619.1z
	 M497.5,408.7c-8.4-4.2-50-24.7-57.7-27.5c-7.7-2.8-13.4-4.2-19,4.2c-5.6,8.5-21.8,27.5-26.7,33.1c-4.9,5.6-9.8,6.3-18.3,2.1
	c-8.4-4.2-35.7-13.1-67.9-41.9c-25.1-22.4-42-50-47-58.5c-4.9-8.5,0-12.6,3.7-17.2c9.1-11.4,18.3-23.3,21.1-28.9
	c2.8-5.6,1.4-10.6-0.7-14.8c-2.1-4.2-19-45.8-26-62.7c-6.9-16.5-13.8-14.2-19-14.5c-4.9-0.2-10.6-0.3-16.2-0.3
	c-5.6,0-14.8,2.1-22.5,10.6c-7.7,8.5-29.6,28.9-29.6,70.4s30.3,81.7,34.5,87.4c4.2,5.6,59.5,90.9,144.3,127.5
	c20.1,8.7,35.9,13.9,48.1,17.8c20.2,6.4,38.6,5.5,53.2,3.3c16.2-2.4,50-20.4,57-40.2c7-19.7,7-36.6,4.9-40.2
	C511.6,415,506,412.9,497.5,408.7z"/>
</svg>
