<svg id="Слой_1" data-name="Слой 1" xmlns="http://www.w3.org/2000/svg" xmlns:xlink="http://www.w3.org/1999/xlink" viewBox="0 0 566.95 110.48">
  <defs>
    <style>
      .cls-1 {
        fill: url(#linear-gradient);
      }

      .cls-2 {
        fill: url(#Безымянный_градиент_50);
      }

      .cls-3 {
        fill: url(#Безымянный_градиент_50-2);
      }

      .cls-4 {
        fill: url(#Безымянный_градиент_37);
      }

      .cls-5 {
        fill: url(#Безымянный_градиент_37-2);
      }

      .cls-6 {
        fill: #387297;
      }

      .cls-7, .cls-8 {
        fill: #81adc4;
      }

      .cls-8 {
        font-size: 61px;
        font-family: MagistralC, MagistralC;
      }
    </style>
    <linearGradient id="linear-gradient" x1="964.28" y1="245.98" x2="35.46" y2="245.98" gradientUnits="userSpaceOnUse">
      <stop offset="0.06" stop-color="#377197"/>
      <stop offset="0.33" stop-color="#377197"/>
      <stop offset="0.38" stop-color="#48698c"/>
      <stop offset="0.48" stop-color="#75556f"/>
      <stop offset="0.62" stop-color="#bd3440"/>
      <stop offset="0.69" stop-color="#e62125"/>
    </linearGradient>
    <linearGradient id="Безымянный_градиент_50" data-name="Безымянный градиент 50" x1="197.26" y1="222.96" x2="244.54" y2="222.96" gradientUnits="userSpaceOnUse">
      <stop offset="0" stop-color="#d2e7f7"/>
      <stop offset="0.26" stop-color="#cce5f6"/>
      <stop offset="0.61" stop-color="#bce0f4"/>
      <stop offset="0.82" stop-color="#aedcf2"/>
    </linearGradient>
    <linearGradient id="Безымянный_градиент_50-2" x1="203.28" y1="279.41" x2="240.43" y2="279.41" xlink:href="#Безымянный_градиент_50"/>
    <linearGradient id="Безымянный_градиент_37" data-name="Безымянный градиент 37" x1="138.06" y1="282.75" x2="191.36" y2="282.75" gradientUnits="userSpaceOnUse">
      <stop offset="0.18" stop-color="#aedcf2"/>
      <stop offset="0.39" stop-color="#bce0f4"/>
      <stop offset="0.74" stop-color="#cce5f6"/>
      <stop offset="1" stop-color="#d2e7f7"/>
    </linearGradient>
    <linearGradient id="Безымянный_градиент_37-2" x1="133.93" y1="222.76" x2="185.65" y2="222.76" xlink:href="#Безымянный_градиент_37"/>
  </defs>
  <title>Global Medic logo</title>
  <g>
    <g>
      <path class="cls-1" d="M223.19,257.77l-.69-.58-.75-.62-.19-.16-.35-.27L221,256l-.38-.28-.23-.17-.39-.28-.23-.17-.36-.25-.28-.19-.36-.23-.29-.18-.36-.21-.3-.17-.35-.18-.32-.17-.35-.16-.33-.15-.35-.14-.34-.13-.35-.11-.35-.11-.35-.08-.36-.08-.35,0-.37,0-.34,0-.41,0c-5.2.16-8,5.9-8.79,7.79l-5.23,0-1.47,22.62-4.92-88.48-1.75,0-5.13,71.26c-.15-1.14-.27-2-.38-2.66-.05-.33-.1-.61-.15-.84s-.09-.43-.13-.59a2.52,2.52,0,0,0-.22-.62l0-.07-.09-.1,0,0-.34-.2-.33,0-.15,0c-.44-.12-1.43-.65-2.49-2.62a5.78,5.78,0,0,0-1.59-1.91,3.62,3.62,0,0,0-2-.74,3.44,3.44,0,0,0-.41,0l-.26,0-.3.06-.25.06-.3.11-.24.1-.3.16-.23.13-.3.21-.22.16-.3.27-.2.18c-.11.11-.21.23-.32.35l-.16.18q-.23.28-.45.6c-1.51,2.19-2.57,2.1-2.54,2.11l-26.23,0V260h-8.88c.15.59.32,1.17.5,1.75h35l.13,0,.09,0,.13,0,.09,0,.15-.05.09,0,.18-.08.08,0,.27-.14,0,0,.24-.15.1-.07.2-.14.12-.1.19-.16.13-.12.19-.19.14-.14.2-.22.13-.15.23-.28.11-.14.35-.48q.15-.22.31-.42l.1-.12.21-.25.13-.13.19-.19.14-.11.19-.15.15-.09.19-.11.16-.07.19-.08.16,0,.19,0h.4a2.89,2.89,0,0,1,2.12,1.74,11.14,11.14,0,0,0,1.28,1.91,7,7,0,0,0,.49.52,4.26,4.26,0,0,0,1.49,1l.34.1c.07.32.14.8.23,1.39.06.39.12.84.19,1.33.17,1.22.36,2.7.55,4.3.16,1.28.32,2.64.47,4,.08.68.15,1.35.23,2l1.75,0,4.82-67h0l5,89.3h1.75l2.3-35.56,4.62,0,0-.06h.22l.2-.58a15.31,15.31,0,0,1,3.52-5.48,6,6,0,0,1,3.88-1.72h.44l.28,0,.31,0,.28,0,.32.07.28.07.32.1.28.1.32.13.28.12.32.15.27.14.32.17.27.15.32.19.26.16.32.21.25.17.32.23.25.18.32.24.24.18.32.25.22.18.33.27.2.16.33.28.18.15.37.31.12.1.47.4c1.81,1.53,3,2.54,4,2.54h16.37c.17-.58.34-1.16.5-1.75H226.09A12.86,12.86,0,0,1,223.19,257.77Z" transform="translate(-133.93 -190.77)"/>
      <g>
        <path class="cls-2" d="M212.68,247.18h.24c5.83,0,10.72,4.14,13.63,6.6l0,0,1,.87h16.22a55.31,55.31,0,0,0-46.59-63.45L201,254.7C203.93,250.07,208.11,247.32,212.68,247.18Z" transform="translate(-133.93 -190.77)"/>
        <path class="cls-3" d="M218.68,263.1l-.23-.2c-1.13-1-4.13-3.49-5.27-3.53h-.12c-.61.13-2,2-2.65,3.73l-.19.56a5.56,5.56,0,0,1-4.85,3.55l-1.17,18.07h0v.07l-.81,12.58v0l-.1,1.49a55.42,55.42,0,0,0,37.15-32.57H226.09C223.15,266.87,221.08,265.13,218.68,263.1Z" transform="translate(-133.93 -190.77)"/>
        <path class="cls-4" d="M190.16,279.14a5.21,5.21,0,0,1-3.43,1.37l-1.75,0h-.1a5.22,5.22,0,0,1-5.19-4.65c-.43-4-.91-7.84-1.25-10.29a11.46,11.46,0,0,1-1.4-1.36,9.13,9.13,0,0,1-6.27,2.71H138.06a55.31,55.31,0,0,0,51.17,34.32c.71,0,1.42,0,2.13-.05l-1-18.39Z" transform="translate(-133.93 -190.77)"/>
        <path class="cls-5" d="M144.59,254.67h0l24.57,0c2.14-3,5-4.69,8.2-4.69l.54,0a8.68,8.68,0,0,1,3.48.95l4.27-60.2a55.29,55.29,0,0,0-51,64h9.1A5.23,5.23,0,0,1,144.59,254.67Z" transform="translate(-133.93 -190.77)"/>
      </g>
    </g>
    <g>
      <path class="cls-6" d="M276.47,272.44h14.27c1.6,0,4.48-.06,6.27-1.54a6.38,6.38,0,0,0,2-3.9H287c-3.52,0-7.62-.32-10.24-4.35-1.79-2.82-2.62-7.1-2.62-13.12,0-5.31.64-9.47,3.58-12.74,3.2-3.52,7-3.71,10.43-3.71h10.94c1.92,0,3.9.06,5.5,1.34a6.13,6.13,0,0,1,2,4.93v23.81c0,4.35-.51,8.26-2.75,10.94-3.14,3.71-8.9,4.1-11.33,4.1h-16Zm22.59-30.91a2.28,2.28,0,0,0-1-2.18,3.3,3.3,0,0,0-2-.51h-6.4a7.89,7.89,0,0,0-5.82,2.11c-2,2.3-2,7.55-2,9.15,0,6.08,1.15,8.25,1.92,9.15,1.66,1.92,4.22,2,6.4,2h8.9Z" transform="translate(-133.93 -190.77)"/>
      <path class="cls-6" d="M311.66,222.2h7.49V267h-7.49Z" transform="translate(-133.93 -190.77)"/>
      <path class="cls-6" d="M355.12,236.28c3.9,3.65,4.35,10,4.35,13.63,0,7.17-1.86,11.46-4.35,13.82-3.65,3.39-9.79,3.65-13.7,3.65s-10-.26-13.69-3.65c-4-3.71-4.35-10.11-4.35-13.57,0-3.84.45-10.24,4.35-13.89,3.71-3.46,9.66-3.58,13.69-3.58S351.4,232.83,355.12,236.28Zm-21.82,22.53c2.18,2.5,5.44,2.82,8.13,2.82s5.82-.32,8.06-2.82,2.24-5.76,2.24-8.7c0-2.5.19-6.34-2.18-9-2.18-2.43-5.44-2.69-8.13-2.69-2.43,0-6.08.26-8.19,2.69s-2.11,6.78-2.11,9C331.12,252.92,331.18,256.38,333.29,258.81Z" transform="translate(-133.93 -190.77)"/>
      <path class="cls-6" d="M371.18,222.2v10.88h9.92c4.1,0,9,.64,11.84,5.57,1.86,3.14,2.24,7.3,2.24,11.58,0,5.5-.83,8.9-2.18,11.2-2.75,4.74-7.74,5.57-11.71,5.57H370.6c-1.92,0-3.84-.06-5.38-1.47a5.46,5.46,0,0,1-1.54-4.22V222.2Zm0,36.22a3.16,3.16,0,0,0,.51,2.24,2.78,2.78,0,0,0,2,.58h5.44c2,0,5.38-.13,7.1-3.46.45-.9,1.15-2.75,1.15-7.23,0-5.38-.9-7.49-1.15-8-1.47-3.14-4.54-3.71-6.85-3.71h-8.25Z" transform="translate(-133.93 -190.77)"/>
      <path class="cls-6" d="M420.26,233.08a9.89,9.89,0,0,1,7,2.62c1.41,1.47,2.5,4.22,2.5,8v17.6c0,1.22-.13,3.14-1.34,4.35s-3.07,1.34-4.67,1.34H407.59c-1.86,0-4.22,0-6.14-1.66-2.75-2.37-2.94-6.72-2.94-9.21,0-3,.32-6,2.88-8.26a8.71,8.71,0,0,1,6.21-2H422.3v-2.37a4.8,4.8,0,0,0-1-3.2,4.39,4.39,0,0,0-3.65-1.47H401v-5.76Zm-10.43,18.56a3.44,3.44,0,0,0-2.75,1.15c-.26.32-.83,1.22-.83,3.65,0,1,.13,2.82,1,3.78a3.7,3.7,0,0,0,2.43,1h10.43a2.76,2.76,0,0,0,1.66-.38,1.58,1.58,0,0,0,.51-1.41v-7.81Z" transform="translate(-133.93 -190.77)"/>
      <path class="cls-6" d="M434.91,222.2h7.49V267h-7.49Z" transform="translate(-133.93 -190.77)"/>
      <path class="cls-7" d="M448.15,238.78a7.81,7.81,0,0,1,.77-3.84,4.39,4.39,0,0,1,3.84-1.86h31.49c2.69,0,5.31.51,7.1,2.11,2.11,1.86,2.62,4.86,2.62,7.68V267h-3.33V242.62a7.22,7.22,0,0,0-1.41-4.86c-1.41-1.54-3.58-1.66-5.06-1.66H472.73V267H469.4V236.09H453.53a2.06,2.06,0,0,0-1.66.58,2.77,2.77,0,0,0-.38,1.79V267h-3.33Z" transform="translate(-133.93 -190.77)"/>
      <path class="cls-7" d="M510.8,267a10.7,10.7,0,0,1-9-4.16c-2.62-3.39-2.75-7.68-2.75-12.67,0-4.74.26-10.5,4.54-14.08,3.07-2.56,7.23-3,10.62-3A17.87,17.87,0,0,1,522.9,235c1.34.83,5.44,3.65,5.44,10.75,0,1-.06,3.26-1.41,4.42a5.63,5.63,0,0,1-3.58,1H502.67a27.27,27.27,0,0,0,.58,6.91A7.65,7.65,0,0,0,510.8,264h16.64v3Zm12.54-18.81c1.47,0,1.41-1.79,1.41-2.24a10.37,10.37,0,0,0-2.3-6.91c-2.43-2.88-5.76-2.94-8.77-2.94-3.39,0-7,.13-9.41,4.1-1.34,2.24-1.54,4.67-1.6,8Z" transform="translate(-133.93 -190.77)"/>
      <path class="cls-7" d="M559,265.78c-1,1.15-2.62,1.22-3.71,1.22H544.72c-3.33,0-8.51-.77-11-6.85-1.34-3.26-1.54-7.29-1.54-11s.19-7.55,2.56-11c3.07-4.48,7.74-5.06,11.52-5.06h10.3V222.2h3.33v39.87A6.8,6.8,0,0,1,559,265.78Zm-13.5-29.69c-2.5,0-6.08.51-8.06,3.84-1.15,1.92-1.66,4.93-1.66,9.73,0,6.14.64,8.19,1,9.09,1.73,4.67,6.08,5.25,8.77,5.25H554a3.25,3.25,0,0,0,2-.51,4.63,4.63,0,0,0,.51-2.37v-25Z" transform="translate(-133.93 -190.77)"/>
      <path class="cls-7" d="M566.28,226.94V222.2h3.58v4.74Zm.13,6.14h3.33V267h-3.33Z" transform="translate(-133.93 -190.77)"/>
    </g>
    <text class="cls-8" transform="translate(443.2 76.63)">k</text>
  </g>
</svg>
