<?xml version="1.0" encoding="utf-8"?>
<!-- Generator: Adobe Illustrator 21.1.0, SVG Export Plug-In . SVG Version: 6.00 Build 0)  -->
<svg version="1.1" id="Слой_1" xmlns="http://www.w3.org/2000/svg" xmlns:xlink="http://www.w3.org/1999/xlink" x="0px" y="0px"
	 viewBox="0 0 430 192.1" style="enable-background:new 0 0 430 192.1;" xml:space="preserve">
<style type="text/css">
	.st0{fill:none;}
	.st1{fill-rule:evenodd;clip-rule:evenodd;fill:url(#SVGID_1_);}
	.st2{fill-rule:evenodd;clip-rule:evenodd;fill:url(#SVGID_2_);}
	.st3{fill:url(#SVGID_3_);}
	.st4{fill:url(#SVGID_4_);}
	.st5{fill:url(#SVGID_5_);}
	.st6{fill:url(#SVGID_6_);}
	.st7{fill-rule:evenodd;clip-rule:evenodd;fill:url(#SVGID_7_);}
	.st8{fill-rule:evenodd;clip-rule:evenodd;fill:#517393;}
	.st9{fill-rule:evenodd;clip-rule:evenodd;fill:url(#SVGID_8_);}
	.st10{fill-rule:evenodd;clip-rule:evenodd;fill:url(#SVGID_9_);}
	.st11{fill:#4E7194;}
	.st12{fill:#8EABC2;}
</style>
<g>
	<path class="st0" d="M158.6,78.3c-0.4,0.5-0.8,1-1.3,1.5C157.7,79.4,158.1,78.9,158.6,78.3z"/>
	<path class="st0" d="M154.9,83c0.2-0.4,0.3-0.8,0.4-0.9C155.1,82.5,155,82.8,154.9,83z"/>
	<g>
		
			<linearGradient id="SVGID_1_" gradientUnits="userSpaceOnUse" x1="1193.2415" y1="515.3826" x2="1291.275" y2="515.3826" gradientTransform="matrix(1.0237 0.1193 -0.1158 0.9933 -979.095 -583.165)">
			<stop  offset="0" style="stop-color:#406C8A"/>
			<stop  offset="3.846655e-02" style="stop-color:#547A97"/>
			<stop  offset="0.1005" style="stop-color:#7091AD"/>
			<stop  offset="0.1652" style="stop-color:#88A7C1"/>
			<stop  offset="0.2324" style="stop-color:#9CBBD3"/>
			<stop  offset="0.3031" style="stop-color:#ACCBE2"/>
			<stop  offset="0.3796" style="stop-color:#B7D5EB"/>
			<stop  offset="0.4725" style="stop-color:#BAD9EF"/>
			<stop  offset="0.6884" style="stop-color:#B8D7ED"/>
			<stop  offset="0.7662" style="stop-color:#B1D0E6"/>
			<stop  offset="0.8217" style="stop-color:#A5C4DC"/>
			<stop  offset="0.8665" style="stop-color:#96B5CE"/>
			<stop  offset="0.9049" style="stop-color:#84A4BE"/>
			<stop  offset="0.9389" style="stop-color:#7091AD"/>
			<stop  offset="0.9689" style="stop-color:#587D9B"/>
			<stop  offset="0.9944" style="stop-color:#406C8A"/>
		</linearGradient>
		<path class="st1" d="M191.3,91.3c11.3-6.3,22.1-13.3,34.7-17.1c3.6-1.1,6.2-4.4,10-5.5c0,0,0.1-0.1,0.1-0.1l0.1,0.1
			c5.6-0.1,9.3-2.5,14.8-5.2c11.4-5,9.3-9.6,20.8-11.9c3.2-0.7,10.1-5.6,14.3-4.7c3,0.8-2.8,19.4-4.3,22.8c-9.8,5.3-2.2,1.1-12,6.4
			c-5.8,0.6-10.7,3.6-15.7,6c-17.7,8.2-35.3,16.7-53.3,24.2c-7,2.9-10.1,3.3-21.5-2.7c-0.7-0.4,0.2-2,0.2-2.8c3.5-0.7,4.9-4.1,7.2-6
			c0,0,0.2-0.2,0.2-0.2c0.3-0.5,0.6-0.9,0.9-1.3c0.4-0.4,0.7-0.7,1.1-1.1C189.7,92,190.5,91.7,191.3,91.3z"/>
		
			<linearGradient id="SVGID_2_" gradientUnits="userSpaceOnUse" x1="-249.643" y1="-171.2191" x2="-188.9219" y2="-171.2191" gradientTransform="matrix(0.9981 -6.170000e-02 6.170000e-02 0.9981 470.4201 262.3735)">
			<stop  offset="0" style="stop-color:#406C8A"/>
			<stop  offset="3.846655e-02" style="stop-color:#547A97"/>
			<stop  offset="0.1005" style="stop-color:#7091AD"/>
			<stop  offset="0.1652" style="stop-color:#88A7C1"/>
			<stop  offset="0.2324" style="stop-color:#9CBBD3"/>
			<stop  offset="0.3031" style="stop-color:#ACCBE2"/>
			<stop  offset="0.3796" style="stop-color:#B7D5EB"/>
			<stop  offset="0.4725" style="stop-color:#BAD9EF"/>
			<stop  offset="0.6884" style="stop-color:#B8D7ED"/>
			<stop  offset="0.7662" style="stop-color:#B1D0E6"/>
			<stop  offset="0.8217" style="stop-color:#A5C4DC"/>
			<stop  offset="0.8665" style="stop-color:#96B5CE"/>
			<stop  offset="0.9049" style="stop-color:#84A4BE"/>
			<stop  offset="0.9389" style="stop-color:#7091AD"/>
			<stop  offset="0.9689" style="stop-color:#587D9B"/>
			<stop  offset="0.9944" style="stop-color:#406C8A"/>
		</linearGradient>
		<path class="st2" d="M213.8,119.7c1,0.4,2.2,0.5,3.3,0.6c7.1,0.8,13.9-1.2,20.3-3.4c5.5-1.8,11.1-4.7,16.1-7.9
			c8.4-5.5,11-7.1,16.4-16.1c3.2-5.3-7.3-5.6-14,2.4c-3.8,4.5-5.1,2.9-10.6,4.9c-5.3,2-8.7,7.8-18.7,6.6c-1.3,1.4-3.1,4-4.8,4.8
			c-3.7,1.9-7.2,4.2-10.5,6.7C211.9,118.9,212.7,119.3,213.8,119.7z"/>
		
			<linearGradient id="SVGID_3_" gradientUnits="userSpaceOnUse" x1="1618.0168" y1="471.778" x2="1725.011" y2="471.778" gradientTransform="matrix(0.9916 0.129 -0.129 0.9916 -1381.2885 -627.7524)">
			<stop  offset="0" style="stop-color:#406C8A"/>
			<stop  offset="2.278509e-02" style="stop-color:#577C9A"/>
			<stop  offset="5.136700e-02" style="stop-color:#6F90AC"/>
			<stop  offset="8.362332e-02" style="stop-color:#83A3BE"/>
			<stop  offset="0.1199" style="stop-color:#96B5CE"/>
			<stop  offset="0.162" style="stop-color:#A5C4DB"/>
			<stop  offset="0.2136" style="stop-color:#B1CFE6"/>
			<stop  offset="0.285" style="stop-color:#B8D7ED"/>
			<stop  offset="0.4725" style="stop-color:#BAD9EF"/>
			<stop  offset="0.6884" style="stop-color:#B8D7ED"/>
			<stop  offset="0.7662" style="stop-color:#B1D0E6"/>
			<stop  offset="0.8217" style="stop-color:#A5C4DC"/>
			<stop  offset="0.8665" style="stop-color:#96B5CE"/>
			<stop  offset="0.9049" style="stop-color:#84A4BE"/>
			<stop  offset="0.9389" style="stop-color:#7091AD"/>
			<stop  offset="0.9689" style="stop-color:#587D9B"/>
			<stop  offset="0.9944" style="stop-color:#406C8A"/>
		</linearGradient>
		<path class="st3" d="M163.4,88.5c-2.6,1.9-3.6,1.6-5.6,0.3c-0.1,0-0.1-0.3-0.2-0.4c-0.8-1.8,1.2-12.4,2.4-15.6
			c0.2-0.4,0.9-0.9,1-1c0.7-0.8,1.3-1.5,1.9-2.3c0.4-0.5,4.1-3.9,4.5-4.4c5.7-6.9,7.8-10.3,16.2-14.4c2.4-0.1,4.7-1.9,6.6-3.4
			c2.8-2.2,8.4-4.5,11.3-6.5c2.1-1.4,2,1.3,3.6,3.6c1.9,2.8,10.2-7.8,12.1-9.3C223,30.2,240.3,20.5,246,20c1.7-0.2,11.3-0.2,13,0.3
			c4.4,0.1,10.7,1.8,14.3,4.2c-0.7,3.2-5.6,7.6-11.9,7.9c-9.5,6.4-10.2,5.5-12.9,6.7c-12.6,5.6-28.8,17.4-40.9,24
			c-7.4,4-5.2-5-12.5,0.2c-6.8,4.8-10,9.7-16.9,14.2c-2.3,1.5-4.3,4.3-6.4,6c-0.6,0.1-1.3,1-1.9,1h0.1L163.4,88.5z"/>
		<linearGradient id="SVGID_4_" gradientUnits="userSpaceOnUse" x1="456.584" y1="74.0635" x2="12.256" y2="74.0635">
			<stop  offset="5.747130e-02" style="stop-color:#4E7094"/>
			<stop  offset="0.3333" style="stop-color:#4E7094"/>
			<stop  offset="0.3766" style="stop-color:#5A6E8B"/>
			<stop  offset="0.4626" style="stop-color:#756673"/>
			<stop  offset="0.5819" style="stop-color:#9D524E"/>
			<stop  offset="0.6897" style="stop-color:#C62529"/>
		</linearGradient>
		<path class="st4" d="M145,84.8c-0.1,0.2-0.1,0.3-0.2,0.4l-4.1,0l-1.2,17.8l-3.9-69.6l-1.4,0l-4,56.2c-0.5-3.8-0.7-3.9-0.9-4.1
			l-0.3-0.2l-0.3,0c-0.3,0-1.1-0.3-2-2.1c-0.7-1.3-1.7-2-2.8-2.1c-1.2-0.1-2.4,0.7-3.3,2c-1.2,1.7-2,1.7-2,1.7l-42.3,0
			c-0.3,0-1.5-1-2.3-1.7c-2.2-1.8-5.1-4.3-8.1-4.2c-4.1,0.1-6.3,4.6-6.9,6.1l-4.1,0l-1.2,17.8l-3.9-69.6l-1.4,0l-4,56
			c-0.5-3.6-0.6-3.7-0.8-3.9l-0.3-0.2l-0.3,0c-0.2,0-1.1-0.3-2.1-2.1c-0.7-1.3-1.7-2-2.8-2.1c-1.2-0.1-2.4,0.7-3.3,2
			c-1.2,1.7-2,1.7-2,1.7l-20.6,0v1.4h20.4c0.4,0.1,1.8,0,3.4-2.2c0.7-0.9,1.4-1.5,2.1-1.4c0.8,0,1.3,0.8,1.7,1.4
			c1.1,2,2.2,2.6,2.9,2.8c0.3,1.4,0.8,6,1.3,10.2l1.4,0l3.8-52.7l3.9,70.2l1.4,0l1.8-28l3.8,0l0.2-0.5c0-0.1,2-5.5,5.8-5.7
			c2.5-0.1,5.2,2.2,7.2,3.9c1.4,1.2,2.4,2,3.2,2h42.1c0.4,0.1,1.8,0,3.4-2.2c0.7-0.9,1.4-1.5,2.1-1.4c0.8,0,1.3,0.8,1.7,1.4
			c1.1,2,2.1,2.6,2.8,2.8c0.3,1.4,0.9,6,1.3,10.2l1.4,0l3.8-52.7l3.9,70.2l1.4,0l1.8-28l3.6,0C145.4,86,145.2,85.4,145,84.8z"/>
		<linearGradient id="SVGID_5_" gradientUnits="userSpaceOnUse" x1="456.3244" y1="74.0635" x2="12.6243" y2="74.0635">
			<stop  offset="5.747130e-02" style="stop-color:#4E7094"/>
			<stop  offset="0.3333" style="stop-color:#4E7094"/>
			<stop  offset="0.3766" style="stop-color:#5A6E8B"/>
			<stop  offset="0.4626" style="stop-color:#756673"/>
			<stop  offset="0.5819" style="stop-color:#9D524E"/>
			<stop  offset="0.6897" style="stop-color:#C62529"/>
		</linearGradient>
		<path class="st5" d="M391.2,86.2c0-0.1,2-5.5,5.8-5.7c2.5-0.1,5.2,2.2,7.2,3.9c1.4,1.2,2.4,2,3.2,2l6.6,0V85l-6.6,0
			c-0.3,0-1.5-1-2.3-1.7c-2.2-1.8-5.1-4.3-8.1-4.2c-4.1,0.1-6.3,4.6-6.9,6.1l-4.1,0l-1.2,17.8L381,33.5l-1.4,0l-4,56.2
			c-0.5-3.8-0.7-3.9-0.9-4.1l-0.3-0.2l-0.3,0c-0.2,0-1.1-0.3-2-2.1c-0.7-1.3-1.7-2-2.8-2.1c-1.2-0.1-2.4,0.7-3.3,2
			c-1.2,1.7-2,1.7-2,1.7l-42.3,0c-0.3,0-1.5-1-2.3-1.7c-2.2-1.8-5.1-4.3-8.1-4.2c-4.1,0.1-6.3,4.6-6.9,6.1l-4.1,0l-1.2,17.8
			l-3.9-69.6l-1.4,0l-4,56c-0.5-3.6-0.6-3.7-0.8-3.9l-0.3-0.2l-0.3,0c-0.2,0-1.1-0.3-2.1-2.1c-0.7-1.3-1.7-2-2.8-2.1
			c-1.2-0.1-2.4,0.7-3.3,2c-1.2,1.7-2,1.7-2,1.7l-5.2,0c0,0.5,0,0.9-0.1,1.4h5.1c0.4,0.1,1.8,0,3.4-2.2c0.7-0.9,1.4-1.5,2.1-1.4
			c0.8,0,1.3,0.8,1.7,1.4c1.1,2,2.2,2.6,2.9,2.8c0.3,1.4,0.8,6,1.3,10.2l1.4,0l3.8-52.7l3.9,70.2l1.4,0l1.8-28l3.8,0l0.2-0.5
			c0-0.1,2-5.5,5.8-5.7c2.5-0.1,5.2,2.2,7.2,3.9c1.4,1.2,2.4,2,3.2,2h42.1c0.4,0.1,1.8,0,3.4-2.2c0.7-0.9,1.5-1.4,2.1-1.4
			c0.8,0,1.3,0.8,1.7,1.4c1.1,2,2.2,2.6,2.8,2.8c0.3,1.4,0.9,6,1.3,10.2l1.4,0l3.8-52.7l3.9,70.2l1.4,0l1.8-28l3.8,0L391.2,86.2z"/>
		
			<linearGradient id="SVGID_6_" gradientUnits="userSpaceOnUse" x1="1293.1683" y1="511.4489" x2="1352.1182" y2="451.2317" gradientTransform="matrix(0.9044 0.1177 -0.129 0.9916 -966.9387 -573.4984)">
			<stop  offset="0" style="stop-color:#406C8A"/>
			<stop  offset="1.690286e-02" style="stop-color:#567996"/>
			<stop  offset="4.191132e-02" style="stop-color:#708CA7"/>
			<stop  offset="6.990203e-02" style="stop-color:#88A0B8"/>
			<stop  offset="0.1007" style="stop-color:#9EB2C8"/>
			<stop  offset="0.1354" style="stop-color:#B1C3D7"/>
			<stop  offset="0.1756" style="stop-color:#C2D2E3"/>
			<stop  offset="0.225" style="stop-color:#CEDDED"/>
			<stop  offset="0.2932" style="stop-color:#D5E4F4"/>
			<stop  offset="0.4725" style="stop-color:#D7E6F6"/>
			<stop  offset="0.6794" style="stop-color:#D5E4F4"/>
			<stop  offset="0.7539" style="stop-color:#CEDDED"/>
			<stop  offset="0.8071" style="stop-color:#C2D2E3"/>
			<stop  offset="0.8501" style="stop-color:#B2C4D7"/>
			<stop  offset="0.8869" style="stop-color:#9FB3C9"/>
			<stop  offset="0.9195" style="stop-color:#89A0B9"/>
			<stop  offset="0.9489" style="stop-color:#718DA8"/>
			<stop  offset="0.9751" style="stop-color:#577A97"/>
			<stop  offset="0.9944" style="stop-color:#406C8A"/>
		</linearGradient>
		<path class="st6" d="M159.8,74.2c1.8-7.4,2.5-7.6,2.6-8c2.7-6.4,1.2-3,10.3-12.6c3.4-4.2,6.6-7.8,8.9-9.2
			c5.6-3.4,2.6,0.9,13.1-3.3c1.9-0.7,6.8-4.5,6.4-4.4c-0.5-3.5,0.2,3.4-0.2-2.3c-1.2-1.4-2.7-3-2.7-3c-6.2,4.1-15.5,0.8-23.4,3.5
			c-7.4,2.5-15.3,7.2-19.7,14c-6.5,9.9-7.7,15-5.8,27.2c0.7,4.7,7,12.1,9.2,13.1C157.9,87.5,158.6,77.5,159.8,74.2z"/>
		
			<linearGradient id="SVGID_7_" gradientUnits="userSpaceOnUse" x1="415.5712" y1="257.8322" x2="556.2565" y2="161.7545" gradientTransform="matrix(0.9994 3.410000e-02 -3.410000e-02 0.9994 -252.9123 -162.309)">
			<stop  offset="0" style="stop-color:#D7E6F6"/>
			<stop  offset="5.697427e-02" style="stop-color:#CCDCEB"/>
			<stop  offset="0.1561" style="stop-color:#B0C2D6"/>
			<stop  offset="0.2854" style="stop-color:#8AA1BA"/>
			<stop  offset="0.4384" style="stop-color:#5C7D9A"/>
			<stop  offset="0.5234" style="stop-color:#406C8A"/>
			<stop  offset="0.7705" style="stop-color:#859DB6"/>
			<stop  offset="1" style="stop-color:#D7E6F6"/>
		</linearGradient>
		<path class="st7" d="M281.7,33.1c-1.1-2.6-6.4-10-14.1-11.1c-0.4,3.3-7.2,7.8-9.7,9.2c-12,6.8-24.3,13-35.7,20.8
			c-7,4.7-10.1,7.4-17.4,11.4c-7.2,4-7.6,4.6-14.1,9.6c-2.1,1.7-6.2,4.7-8.2,6.6c-2.9,4.2-6.4,6.3-8.5,10.3
			c-5.5,7.8,0.1,11.1,9,15.9c3.4-1,3-4.3,10.2-10c10.4-7.2,13.9-7.4,25.1-13.7c4.7-2.6,5.1-1.3,9.2-4.5l11.1-7.7
			c0,0,5.9-8.1,13-12.3c9.8-5.9,10.7-6,20.6-11.9C275.4,43.9,284.5,39.1,281.7,33.1z"/>
		<path class="st8" d="M243.3,1c-1.5-1.4-2.9-0.9-4.4-0.6c-2.6,0.5-4.5,2-7,3.5c-4.4,2.7-6.9,5.3-12.1,3.2
			c-5.4-2.2-11.1-3.6-16.7-5.1c-3.4-0.9-6.8-2.8-10.5,1.3c-0.1,0.4,1,1.1,1.5,1.3c6.2,3.1,12.4,5.9,18.7,8.9
			c2.4,1.1,2.4,1.9,0.5,3.6c-3,2.6-5.4,5-8.4,8.2c-2.9,3.1-5.2,4.2-8.9,2.9c-2.3-0.8-7-2.3-6.8,0.1c0.1,0.8,3.2,2.7,5.9,4.6
			c1,0.7,2.3,2,2.9,3.3c0.4,0.9,1.6,5.7,2.4,7.7c2.7,0.4,2.9-2.7,2.8-4.7c-0.3-5.8,1.7-7.4,6.5-9.6c3.4-1.6,6.2-3.2,9.2-5
			c1.9-1.2,3-1.3,3.5,1.4c0.7,3.5,2,20.7,4.2,20.4c2.5-0.3,3.3-2.7,3.4-4.1c0.1-3.3,0.2-6.6,0.3-9.9c0.1-4.4,0.4-8.7,0.4-13.1
			c0-2.3,1-3.6,2.7-5c3.3-2.6,6.7-5.2,9.1-8.8C243.4,4,244.7,2.3,243.3,1z"/>
		<linearGradient id="SVGID_8_" gradientUnits="userSpaceOnUse" x1="206.9184" y1="115.5633" x2="286.3777" y2="60.2433">
			<stop  offset="0" style="stop-color:#D7E6F6"/>
			<stop  offset="5.697427e-02" style="stop-color:#CCDCEB"/>
			<stop  offset="0.1561" style="stop-color:#B0C2D6"/>
			<stop  offset="0.2854" style="stop-color:#8AA1BA"/>
			<stop  offset="0.4384" style="stop-color:#5C7D9A"/>
			<stop  offset="0.5234" style="stop-color:#406C8A"/>
			<stop  offset="0.7705" style="stop-color:#859DB6"/>
			<stop  offset="1" style="stop-color:#D7E6F6"/>
		</linearGradient>
		<path class="st9" d="M219.9,113.7c0,0-0.1,0-0.1,0c0.1-0.1,2.5-1.4,2.6-1.5c1.6-1.4,0.9-1.5,2.9-2.3c0,0,0.2-0.1,0.2-0.1s0,0,0,0
			c0.8-0.6,1.5-1.3,2.3-1.9c5-4.2,12-5.3,15.8-11.1c0.7-1.1,1.7-2.1,2.8-2.7c8.7-5,13.3-2.7,20.4-10.2c0.8-0.9,3-1.6,4.2-2.2
			c10-5.1,10.6-10.7,14.4-21.8c0.8-2.3,1.7-8.4,1.6-10.9c-1.7,4.8-10.1,12.1-23.1,19.6c-3.2,1.1-5.8,5.2-6.9,5.9
			c-14.3,9.4-25.8,16.4-36.5,30.1c-0.6,0.8-4.4,3.5-5.3,3.9c-5.5,2.4-7.4,1-11.9,4.9c-2.7,2.3,9.3,6,10,6c4.5-2.9-0.6-1.3,4.4-3.5
			C219.7,114.8,218.1,115.4,219.9,113.7z"/>
		<linearGradient id="SVGID_9_" gradientUnits="userSpaceOnUse" x1="229.7979" y1="121.7768" x2="293.3355" y2="94.4991">
			<stop  offset="0" style="stop-color:#D7E6F6"/>
			<stop  offset="5.697427e-02" style="stop-color:#CCDCEB"/>
			<stop  offset="0.1561" style="stop-color:#B0C2D6"/>
			<stop  offset="0.2854" style="stop-color:#8AA1BA"/>
			<stop  offset="0.4384" style="stop-color:#5C7D9A"/>
			<stop  offset="0.5234" style="stop-color:#406C8A"/>
			<stop  offset="0.7705" style="stop-color:#859DB6"/>
			<stop  offset="1" style="stop-color:#D7E6F6"/>
		</linearGradient>
		<path class="st10" d="M231.2,131c3.6,2.8,4.3,3.8,8.2-1.9c0.7-1.1,2-3.5,3-4.3c8.4-7.6,11.4-12.3,19.5-21.5
			c1.6-1.9,8.8-7.8,8.8-12.9c-2.5,3.2-4,1.6-17.1,11.8c-4.5,2.8-7.9,8.3-8.9,9.1c-7.3,5.7-5.6,9.5-10.8,12.9
			c-0.8,0.6-2.7,2.5-4.5,2.9C227.1,127.6,222.9,124.6,231.2,131z"/>
	</g>
	<g>
		<g>
			<path class="st11" d="M16.4,192.1c-4.4,0-9.6-0.4-13.2-5.5c-2.9-4.1-3.1-10-3.1-15.7c0-8.1,0.4-14,5.1-18.1
				c4.7-4.1,12.1-4.1,16.1-4.1c5.1,0,10.3,0.2,14.3,2.8c5.1,3.2,6.1,8.6,6.1,14c0,2.2-0.2,4.7-2,6.5c-1.3,1.3-2.9,1.6-4.6,1.6H9.9
				c0,1.9,0.2,4.6,0.6,5.9c1.2,4.6,5.2,5.1,8.7,5.1h21.1v7.3H16.4z M29.7,166.4c1.9,0,2.1-1.4,2.1-2.5c0-2.7-1.4-4.7-2.8-5.8
				c-2.4-1.8-5.5-2-8.2-2c-2.5,0-6.4-0.1-9,2.9c-2,2.2-1.9,4.6-2,7.4H29.7z"/>
			<path class="st11" d="M47.1,156.4c0-1.2,0.2-3.3,1.2-4.9c1.6-2.3,4.6-2.6,6.5-2.6h38.9c3.1,0,7.9,0.6,11,3.4
				c2.4,2.4,3.9,6.3,3.9,10.6v29.2h-9.5v-27.7c0-1.9-0.2-4.4-1.8-6.1c-1.6-1.9-4.1-2-5.8-2h-8.9v35.9h-9.5v-35.9H59.2
				c-1.4,0-1.9,0.4-2.1,0.7c-0.2,0.2-0.4,0.7-0.4,2.3v32.9h-9.5V156.4z"/>
			<path class="st11" d="M124.7,135.1v13.9h12.6c5.2,0,11.4,0.8,15.1,7.1c2.4,4,2.9,9.3,2.9,14.8c0,7-1.1,11.3-2.8,14.3
				c-3.5,6-9.9,7.1-14.9,7.1H124c-2.4,0-4.9-0.1-6.8-1.9c-1.7-1.6-2-3.7-2-5.4v-49.8H124.7z M124.7,181.2c0,0.9-0.1,2,0.7,2.9
				c0.7,0.7,1.6,0.7,2.6,0.7h6.9c2.5,0,6.8-0.2,9-4.4c0.6-1.1,1.5-3.5,1.5-9.2c0-6.8-1.1-9.5-1.5-10.2c-1.9-4-5.8-4.7-8.7-4.7h-10.5
				V181.2z"/>
			<path class="st11" d="M175.8,192.1c-4.4,0-9.6-0.4-13.2-5.5c-2.9-4.1-3.1-10-3.1-15.7c0-8.1,0.4-14,5.1-18.1
				c4.7-4.1,12.1-4.1,16.1-4.1c5.1,0,10.3,0.2,14.3,2.8c5.1,3.2,6.1,8.6,6.1,14c0,2.2-0.2,4.7-2,6.5c-1.3,1.3-2.9,1.6-4.6,1.6h-25.1
				c0,1.9,0.2,4.6,0.6,5.9c1.2,4.6,5.2,5.1,8.7,5.1h21.1v7.3H175.8z M189.2,166.4c1.9,0,2.1-1.4,2.1-2.5c0-2.7-1.4-4.7-2.8-5.8
				c-2.4-1.8-5.5-2-8.2-2c-2.5,0-6.4-0.1-9,2.9c-2,2.2-1.9,4.6-2,7.4H189.2z"/>
			<path class="st11" d="M206.5,165.2c0-4.7,0.8-9.4,4.5-12.6c4-3.5,9.6-3.8,13-3.8h6.4v7.3h-4c-2.5,0-5.9,0.3-8.2,3
				c-1.8,2.2-2.2,5.2-2.2,8.5v24.4h-9.5V165.2z"/>
			<path class="st12" d="M234.5,156.2c0-1.6,0.2-3.5,1-4.9c1.4-2.1,3.7-2.4,4.9-2.4h40.1c3.4,0,6.8,0.7,9,2.7
				c2.7,2.4,3.3,6.2,3.3,9.8v30.7h-4.2v-31.1c0-2-0.2-4.5-1.8-6.2c-1.8-2-4.6-2.1-6.4-2.1h-14.6v39.4h-4.2v-39.4h-20.2
				c-0.7,0-1.5,0.1-2.1,0.7c-0.5,0.6-0.5,1.5-0.5,2.3v36.4h-4.2V156.2z"/>
			<path class="st12" d="M314.3,192.1c-3.5,0-8.1-0.9-11.4-5.3c-3.3-4.3-3.5-9.8-3.5-16.1c0-6,0.3-13.4,5.8-17.9
				c3.9-3.3,9.2-3.8,13.5-3.8c3,0,7.5,0.4,11,2.4c1.7,1.1,6.9,4.6,6.9,13.7c0,1.2-0.1,4.2-1.8,5.6c-1.3,1.1-3.3,1.3-4.6,1.3h-26.3
				c-0.1,2.5,0.1,6.5,0.7,8.8c1,3.5,3.9,7.5,9.6,7.5h21.2v3.8H314.3z M330.3,168.2c1.9,0,1.8-2.3,1.8-2.9c0-4.2-1.5-7.1-2.9-8.8
				c-3.1-3.7-7.3-3.7-11.2-3.7c-4.3,0-9,0.2-12,5.2c-1.7,2.9-2,5.9-2,10.2H330.3z"/>
			<path class="st12" d="M375.7,190.6c-1.2,1.5-3.3,1.5-4.7,1.5h-13.4c-4.2,0-10.8-1-14-8.7c-1.7-4.2-2-9.3-2-14
				c0-4.7,0.2-9.6,3.3-14c3.9-5.7,9.9-6.4,14.7-6.4h13.1v-13.9h4.2v50.8C376.8,187.5,376.5,189.5,375.7,190.6z M358.5,152.8
				c-3.2,0-7.7,0.7-10.3,4.9c-1.5,2.4-2.1,6.3-2.1,12.4c0,7.8,0.8,10.4,1.2,11.6c2.2,6,7.7,6.7,11.2,6.7h10.8c0.5,0,2,0,2.6-0.7
				c0.5-0.6,0.7-2.1,0.7-3v-31.9H358.5z"/>
			<path class="st12" d="M385,141.1v-6h4.6v6H385z M385.1,148.9h4.2v43.2h-4.2V148.9z"/>
			<path class="st12" d="M412.7,192.1c-6.1,0-10.2-2.4-12.7-5.5c-3.4-4.1-3.9-9.2-3.9-15.6c0-5.9,0.3-12.7,4.9-17.4
				c2.5-2.5,6.7-4.8,13.4-4.8H429v3.8h-15.1c-6.9,0-11.2,3.7-12.5,8.8c-0.6,2.4-0.8,8-0.8,10.1c0,2.9,0.4,7.7,1.5,10.2
				c2.5,5.7,8.8,6.4,12.7,6.4H430v3.8H412.7z"/>
		</g>
	</g>
</g>
</svg>
